<?xml version="1.0" encoding="iso-8859-1"?>
<!-- Uploaded to: SVG Repo, www.svgrepo.com, Generator: SVG Repo Mixer Tools -->
<svg version="1.1" id="Layer_1" xmlns="http://www.w3.org/2000/svg" xmlns:xlink="http://www.w3.org/1999/xlink" 
	 viewBox="0 0 512 512" xml:space="preserve">
<rect x="83.997" y="8" style="fill:#E2804F;" width="344.001" height="495.997"/>
<rect x="111.818" y="64.506" style="fill:#FFFFFF;" width="279.676" height="406.991"/>
<polygon style="fill:#F2BF7E;" points="424.362,7.632 79.985,7.632 79.985,39.982 136.338,39.982 136.338,87.986 368.01,87.986 
	368.01,39.982 424.362,39.982 "/>
<path d="M76,0v512h360V0H76z M420,16v16.676h-60.339V80.68H143.643V32.676H92V16C92,16,420,16,420,16z M375.315,96.335V72.333h8.349
	V463.67H119.641V72.333h8.349v24.002L375.315,96.335L375.315,96.335z M92,496V48.331h35.989v8.349h-24.002v422.645h295.329V56.679
	h-24.002v-8.349H420V496H92z"/>
<rect x="160.344" y="48.328" width="15.654" height="15.654"/>
<rect x="328.358" y="48.328" width="15.654" height="15.654"/>
<rect x="191.651" y="48.328" width="120.01" height="15.654"/>
<polygon style="fill:#D4E4AC;" points="172,179.314 150.342,157.657 161.657,146.343 172,156.686 206.343,122.343 217.657,133.657 
	"/>
<rect x="232.35" y="135.987" width="120.01" height="15.654"/>
<g>
	<rect x="232.35" y="159.989" style="fill:#E2804F;" width="15.654" height="15.654"/>
	<rect x="263.657" y="159.989" style="fill:#E2804F;" width="16.697" height="15.654"/>
	<rect x="296.008" y="159.989" style="fill:#E2804F;" width="15.654" height="15.654"/>
</g>
<polygon style="fill:#D4E4AC;" points="172,267.314 150.342,245.657 161.657,234.343 172,244.686 206.343,210.343 217.657,221.657 
	"/>
<rect x="232.35" y="224.69" width="120.01" height="15.654"/>
<g>
	<rect x="232.35" y="248.692" style="fill:#E2804F;" width="15.654" height="15.654"/>
	<rect x="263.657" y="248.692" style="fill:#E2804F;" width="16.697" height="15.654"/>
	<rect x="296.008" y="248.692" style="fill:#E2804F;" width="15.654" height="15.654"/>
</g>
<rect x="232.35" y="312.35" style="fill:#D4E4AC;" width="120.01" height="15.654"/>
<g>
	<rect x="232.35" y="336.352" style="fill:#E2804F;" width="15.654" height="15.654"/>
	<rect x="263.657" y="336.352" style="fill:#E2804F;" width="16.697" height="15.654"/>
	<rect x="296.008" y="336.352" style="fill:#E2804F;" width="15.654" height="15.654"/>
</g>
<rect x="232.35" y="400.01" style="fill:#D4E4AC;" width="120.01" height="15.654"/>
<g>
	<rect x="232.35" y="424.012" style="fill:#E2804F;" width="15.654" height="15.654"/>
	<rect x="263.657" y="424.012" style="fill:#E2804F;" width="16.697" height="15.654"/>
	<rect x="296.008" y="424.012" style="fill:#E2804F;" width="15.654" height="15.654"/>
</g>
</svg>